<svg xmlns="http://www.w3.org/2000/svg"
     width="24"
     height="24"
     viewBox="0 0 24 24"
     fill="none">
  <path d="M7.5 4.5C7.9 4.1 8.5 4 9 4.3L11.3 5.6C11.9 5.9 12.2 6.6 12 7.2L11.2 9.6C12.2 11.7 13.9 13.4 16 14.4L18.4 13.6C19 13.4 19.7 13.7 20 14.3L21.3 16.6C21.6 17.1 21.5 17.7 21.1 18.1L19.8 19.4C19 20.2 17.8 20.5 16.7 20.1C9.9 17.7 6.3 14.1 3.9 7.3C3.5 6.2 3.8 5 4.6 4.2L7.5 4.5Z"
        stroke="currentColor"
        stroke-width="2.2"
        stroke-linecap="round"
        stroke-linejoin="round"/>
</svg>