<svg version="1.1" id="Layer_1" xmlns="http://www.w3.org/2000/svg" xmlns:xlink="http://www.w3.org/1999/xlink" x="0px" y="0px"
	 width="100%" viewBox="0 0 1024 1024" enable-background="new 0 0 1024 1024" xml:space="preserve">
<path fill="#3DBFA0" opacity="1.000000" stroke="none" 
	d="
M880.223511,187.806656 
	C904.348511,217.567764 925.264160,249.011719 942.072449,283.078522 
	C965.517700,330.597198 981.459473,380.455658 989.528564,432.933014 
	C994.793518,467.173950 996.435486,501.540680 995.096741,536.018372 
	C993.449219,578.448425 985.884521,619.949585 973.304993,660.561768 
	C955.248108,718.856567 926.907776,771.701599 889.538269,819.779724 
	C837.744873,886.414917 773.247803,936.630371 695.300903,969.327209 
	C658.558044,984.739929 620.347290,994.997803 581.009338,1000.901794 
	C545.289551,1006.262817 509.298798,1007.138184 473.358185,1004.067078 
	C381.931213,996.255005 299.468658,964.526978 226.214828,909.297302 
	C171.664352,868.168945 126.855202,818.190796 92.601730,758.991760 
	C61.643406,705.487610 41.911484,648.034485 32.483997,586.925476 
	C27.894606,557.177002 26.007919,527.294739 27.026667,497.298492 
	C29.437092,426.325317 45.726173,358.622040 76.511147,294.534821 
	C104.848526,235.542892 143.309479,184.006653 191.615463,139.913208 
	C233.099976,102.046394 279.874786,72.381042 331.762024,50.748764 
	C365.889709,36.520592 401.187195,26.456888 437.616241,20.398340 
	C457.985535,17.010698 478.505463,15.169834 499.191467,14.509262 
	C523.730896,13.725638 548.132874,14.670989 572.460754,17.664154 
	C617.725525,23.233273 661.164612,35.540665 702.912903,53.796070 
	C757.891113,77.836586 806.503357,111.268768 849.015320,153.573868 
	C859.883545,164.389221 870.218079,175.714035 880.223511,187.806656 
M380.413788,960.993042 
	C409.421204,970.133423 439.091766,975.957825 469.351196,978.904175 
	C515.453369,983.393127 561.232422,981.198120 606.451172,971.188965 
	C696.198181,951.323364 773.631836,909.113403 837.237549,842.344727 
	C885.730164,791.440613 922.151611,733.081848 945.063599,666.479919 
	C966.708496,603.561523 974.428101,538.936157 968.908936,472.647949 
	C966.289734,441.189362 961.173828,410.153778 952.422852,379.861694 
	C924.335938,282.637085 872.353760,200.951004 792.719849,137.750275 
	C715.520508,76.481712 627.476562,43.702377 529.005676,39.495316 
	C493.769409,37.989883 458.786011,41.225319 424.230682,48.383389 
	C335.539276,66.755638 258.962219,107.900459 194.459793,171.398956 
	C153.915207,211.312469 121.871254,257.321472 97.694656,308.795837 
	C64.540260,379.384766 48.929325,453.543762 51.960957,531.626343 
	C53.474716,570.614502 59.798244,608.682922 70.953499,646.031372 
	C92.471245,718.073975 129.322784,781.249451 180.840195,835.868469 
	C236.289642,894.656311 302.467804,936.501099 380.413788,960.993042 
z"/>
<path fill="#3DBFA0" opacity="1.000000" stroke="none" 
	d="
M176.830109,391.000000 
	C176.833786,374.333893 176.765244,358.167419 176.856735,342.001801 
	C177.078842,302.751465 208.311646,271.693695 247.601410,271.689056 
	C424.095245,271.668243 600.589661,271.904449 777.082397,271.457703 
	C807.407410,271.380951 841.530884,291.465118 848.797546,330.902496 
	C849.696716,335.782349 849.986389,340.846283 849.936768,345.818665 
	C848.815491,458.140686 849.491089,570.466614 849.128967,682.789917 
	C849.015015,718.142334 823.975098,747.451904 789.244263,752.905212 
	C784.835754,753.597412 780.268188,753.404480 775.774292,753.405396 
	C663.444824,753.428467 551.115356,753.424133 438.785858,753.420715 
	C375.307587,753.418823 311.817474,752.681641 248.355957,753.709961 
	C216.374908,754.228271 176.674789,728.230957 176.775681,681.988770 
	C176.986954,585.159546 176.834030,488.329620 176.830109,391.000000 
M597.625793,506.108582 
	C630.028137,476.875214 662.464844,447.679779 694.823914,418.398621 
	C732.370728,384.423218 769.844849,350.367523 807.364258,316.361847 
	C811.339233,312.759155 811.452454,311.939240 807.215759,308.294403 
	C797.826965,300.217224 786.909546,296.995667 774.508911,297.004761 
	C607.566406,297.127197 440.623871,297.084656 273.681335,297.091461 
	C264.185150,297.091858 254.670685,296.809326 245.197372,297.295166 
	C233.022110,297.919556 222.941101,303.223846 214.932236,312.156677 
	C215.410294,314.218018 216.828888,314.959778 217.910416,315.934692 
	C239.685654,335.563965 261.507294,355.141846 283.271851,374.782959 
	C350.422028,435.381653 417.910370,495.606323 484.548462,556.771484 
	C502.228363,572.999390 525.389832,572.704468 543.029419,556.304260 
	C560.962097,539.631775 579.063354,523.140686 597.625793,506.108582 
M677.337646,605.167419 
	C673.302551,601.432739 669.266235,597.699463 665.232666,593.963135 
	C645.433350,575.622864 625.647095,557.268372 605.816345,538.962219 
	C603.874634,537.169800 602.307190,534.598083 598.894348,537.770691 
	C585.720764,550.017273 572.054504,561.736572 558.958069,574.062744 
	C532.630310,598.842041 496.135376,599.584351 469.087860,575.519836 
	C461.371460,568.654480 453.775604,561.653870 446.088806,554.755005 
	C438.814423,548.226257 431.493195,541.749695 423.862976,534.956726 
	C357.383942,597.316650 291.363159,659.246765 224.951874,721.543152 
	C233.548920,727.096497 242.121857,728.847473 251.288605,728.845093 
	C394.414856,728.808044 537.541077,728.821594 680.667358,728.822327 
	C712.658325,728.822510 744.649292,728.812988 776.640259,728.819153 
	C785.472717,728.820862 793.649902,726.757019 801.557922,721.209045 
	C760.077881,682.461060 718.964844,644.055908 677.337646,605.167419 
M269.288147,396.221893 
	C247.555283,376.681427 225.822403,357.140930 203.921387,337.449280 
	C201.555908,340.918976 202.339813,344.011292 202.338181,346.912628 
	C202.288681,435.061981 202.294403,523.211365 202.295151,611.360718 
	C202.295364,635.355957 202.218506,659.351746 202.368530,683.346069 
	C202.412949,690.449036 203.693024,697.366638 208.283920,703.885498 
	C273.941254,641.776367 339.106323,580.132874 404.620270,518.159363 
	C359.377747,477.391663 314.597046,437.040131 269.288147,396.221893 
M823.603577,672.480896 
	C823.603577,560.828674 823.603577,449.176483 823.603577,337.524261 
	C823.051697,337.457825 822.499817,337.391388 821.947998,337.324951 
	C754.770264,397.171051 688.938721,458.503082 620.887390,518.631592 
	C687.705994,579.664246 752.740479,641.194641 818.493286,702.760315 
	C823.642273,693.040771 823.668335,683.264587 823.603577,672.480896 
z"/>
</svg>