<svg version="1.1" id="Layer_1" xmlns="http://www.w3.org/2000/svg" xmlns:xlink="http://www.w3.org/1999/xlink" x="0px" y="0px"
	 width="100%" viewBox="0 0 1024 1024" enable-background="new 0 0 1024 1024" xml:space="preserve">
<path fill="#3DBFA0" opacity="1.000000" stroke="none" 
	d="
M61.050961,375.218170 
	C76.396439,320.829376 99.421410,270.435577 131.214539,224.158554 
	C180.838806,151.927170 245.988464,98.125595 325.547913,61.775524 
	C369.808716,41.553112 416.331818,29.072439 464.717712,23.915648 
	C495.406860,20.644909 526.109619,20.506779 556.928833,23.465185 
	C613.622559,28.907326 667.631592,43.706356 718.446960,69.236610 
	C796.806396,108.605331 859.778809,165.273743 905.969299,240.023209 
	C941.844910,298.080383 965.235474,360.906006 976.461731,428.282135 
	C982.370605,463.745300 984.808899,499.432983 983.026489,535.279602 
	C979.740540,601.362793 964.276428,664.566040 936.432251,724.681213 
	C921.383850,757.170471 903.095032,787.732239 881.252136,816.053406 
	C843.808594,864.602295 798.943787,904.903564 746.016235,936.103577 
	C699.198975,963.701599 649.059448,982.398682 595.776489,992.834473 
	C561.766479,999.495544 527.382385,1001.836731 492.861023,1000.046814 
	C397.155792,995.084595 310.904449,963.601074 234.596329,905.610291 
	C157.327011,846.889038 103.513260,771.012024 71.142403,679.699280 
	C56.203060,637.557861 47.054493,594.202820 43.633934,549.634705 
	C41.051582,515.988037 41.961338,482.476440 46.385612,448.974060 
	C49.661194,424.170013 54.471767,399.743622 61.050961,375.218170 
M285.920166,114.464676 
	C257.409088,131.975739 231.092758,152.349869 207.248276,175.798462 
	C171.893372,210.566360 143.254166,250.347290 121.047325,294.622467 
	C81.967789,372.537689 65.023262,455.096924 70.133354,542.170166 
	C72.467697,581.946106 79.895561,620.765442 92.229523,658.585632 
	C119.601334,742.517090 166.388367,813.714355 234.232956,870.377747 
	C312.506470,935.751221 402.953217,970.215820 504.969543,973.524841 
	C535.357178,974.510498 565.487732,971.231995 595.287598,965.090149 
	C670.260925,949.637939 736.971008,917.232056 795.173950,867.492432 
	C842.695435,826.880981 879.956421,778.223328 907.620667,722.258423 
	C934.402832,668.077942 950.167664,610.853210 955.076538,550.513245 
	C957.629028,519.137878 957.012695,487.884979 953.321167,456.772614 
	C947.561218,408.227722 935.295715,361.318298 915.285767,316.539398 
	C894.863281,270.837402 868.404480,229.073212 834.576904,192.125687 
	C804.421814,159.189407 769.729126,131.849228 731.204407,109.293053 
	C674.789429,76.262123 613.914307,57.161663 548.907410,51.528904 
	C510.402100,48.192471 472.018005,50.219597 433.974243,57.340096 
	C381.346222,67.190269 332.179047,86.058556 285.920166,114.464676 
z"/>
<path fill="#3DBFA0" opacity="1.000000" stroke="none" 
	d="
M721.990723,392.143494 
	C722.539062,454.609802 701.579407,508.355347 658.390503,552.648254 
	C625.285095,586.599792 584.623169,606.814575 537.405457,613.494751 
	C527.196045,614.939209 528.373169,612.257629 528.327515,623.833008 
	C528.248596,643.831970 528.422363,663.832764 528.198547,683.829529 
	C528.147400,688.406433 529.487671,689.824402 534.119446,689.796570 
	C564.450500,689.614685 594.783203,689.666199 625.115234,689.733582 
	C634.129272,689.753601 640.888611,695.984131 642.030334,704.960693 
	C642.997070,712.560669 636.989319,720.899475 629.022095,722.777649 
	C627.107056,723.229187 625.059265,723.242859 623.072327,723.245178 
	C593.906860,723.279236 564.741394,723.279175 535.575928,723.282532 
	C528.317444,723.283325 528.305725,723.275574 528.302856,730.742493 
	C528.292358,758.241394 528.324707,785.740417 528.267090,813.239197 
	C528.245911,823.319641 522.231689,830.063904 513.245117,830.373047 
	C503.446381,830.710205 496.689331,824.071472 496.674805,813.910156 
	C496.635284,786.244690 496.656403,758.579041 496.662079,730.913513 
	C496.663635,723.286438 496.677368,723.297791 489.096161,723.297974 
	C459.597351,723.298523 430.098450,723.319885 400.599731,723.267700 
	C392.762756,723.253845 386.704315,719.161438 384.147858,712.492371 
	C381.451752,705.459045 383.236053,699.373718 388.283142,694.163879 
	C391.738159,690.597534 396.225586,689.656006 401.093781,689.665771 
	C430.759155,689.725220 460.424713,689.702698 490.090210,689.691040 
	C496.615356,689.688538 496.648712,689.658020 496.656616,682.968384 
	C496.680603,662.635864 496.681519,642.303345 496.680542,621.970825 
	C496.680176,614.607117 496.683289,614.468628 489.601654,613.591492 
	C453.556061,609.126770 421.115417,595.597290 392.008881,574.167175 
	C351.773712,544.543457 325.221222,505.151642 311.819153,457.254242 
	C294.341736,394.791901 302.245453,335.124725 336.586914,280.143799 
	C370.291504,226.182556 419.522247,193.304947 482.553314,184.223999 
	C555.223633,173.754318 617.216492,197.171082 666.892334,250.819473 
	C696.249390,282.524139 712.741821,321.102142 719.420959,363.841003 
	C720.865173,373.082001 721.280640,382.375092 721.990723,392.143494 
M421.022705,239.559387 
	C403.741608,250.288879 388.476288,263.372345 375.806885,279.289612 
	C342.816559,320.737061 329.499695,368.121613 335.659119,420.472687 
	C339.662933,454.502319 352.286224,485.701416 373.900787,512.545654 
	C414.941895,563.516602 467.614227,588.802307 533.713989,581.621277 
	C569.929565,577.686768 601.746521,562.402771 628.309631,537.815613 
	C674.614807,494.954865 695.355713,441.597656 689.770874,378.486481 
	C686.217896,338.336456 670.818237,303.009399 643.940674,273.155029 
	C608.905334,234.239304 564.840149,213.854691 512.332214,213.605515 
	C479.884155,213.451523 449.443634,222.046890 421.022705,239.559387 
z"/>
</svg>