<svg version="1.1" id="Layer_1" xmlns="http://www.w3.org/2000/svg" xmlns:xlink="http://www.w3.org/1999/xlink" x="0px" y="0px"
	 width="100%" viewBox="0 0 1024 1024" enable-background="new 0 0 1024 1024" xml:space="preserve">
<path fill="#3DBFA0" opacity="1.000000" stroke="none" 
	d="
M46.967628,600.776917 
	C43.957993,582.944885 41.580601,565.474976 40.345619,547.853821 
	C38.689671,524.226135 38.714149,500.625763 40.370239,476.986298 
	C41.931664,454.698151 44.959343,432.648071 49.562279,410.802460 
	C65.271454,336.246521 96.187096,268.653168 142.503265,208.137695 
	C205.311600,126.073982 286.932098,71.081543 385.226501,40.555729 
	C415.480988,31.160046 446.619385,25.736023 478.336487,23.473644 
	C501.320374,21.834204 524.250671,21.223265 547.211060,22.904938 
	C590.147400,26.049683 631.851074,35.025883 672.221008,50.034306 
	C743.823303,76.654076 805.517395,117.981911 856.785706,174.696182 
	C911.942261,235.711746 948.874451,306.601471 970.136963,385.768494 
	C978.130066,415.529297 983.232544,445.852570 985.425598,476.685760 
	C992.664062,578.457886 969.607361,673.282654 918.872314,761.228943 
	C870.723450,844.692322 802.686157,907.679016 716.714661,951.205750 
	C668.675781,975.527527 617.699768,990.319946 564.373169,996.953308 
	C522.958862,1002.104919 481.644501,1000.743164 440.501068,993.621277 
	C352.766571,978.434631 275.986206,940.588806 208.610825,882.696838 
	C140.129196,823.854309 92.807106,751.019226 63.795658,665.940002 
	C56.592514,644.815918 51.093601,623.180054 46.967628,600.776917 
M92.268272,671.314148 
	C105.421448,706.577576 122.099747,740.057739 143.276886,771.206787 
	C199.170532,853.419800 273.265411,912.861389 366.271973,948.244751 
	C427.357971,971.484375 490.584900,980.225525 555.683228,973.525330 
	C606.203674,968.325562 654.172424,953.877075 699.915405,931.921875 
	C758.778076,903.669556 809.124023,864.303162 851.361084,814.677795 
	C877.834412,783.573730 899.472168,749.279419 916.702271,712.154968 
	C942.381470,656.825562 957.579651,598.884827 960.559814,537.943054 
	C963.125305,485.481445 957.677002,433.792755 942.878052,383.296814 
	C911.477356,276.153503 852.353455,188.507889 759.627014,124.898705 
	C679.791260,70.132317 591.434692,44.702778 494.581543,48.953369 
	C460.978302,50.428116 428.085846,55.775299 395.749786,64.996407 
	C324.138214,85.417534 261.621002,121.731697 207.972183,173.123810 
	C168.399796,211.031570 136.519440,254.804306 112.315598,304.025085 
	C87.695763,354.091766 72.221680,406.836060 66.056129,462.355011 
	C62.529118,494.114777 62.127468,525.858459 65.485512,557.583618 
	C69.586174,596.324829 78.435097,634.026184 92.268272,671.314148 
z"/>
<path fill="#3DBFA0" opacity="1.000000" stroke="none" 
	d="
M285.507324,434.497314 
	C318.796814,404.877197 357.409180,387.530701 401.228119,383.058716 
	C459.869415,377.073975 511.878448,393.626099 556.723694,432.110474 
	C564.602844,438.872009 564.563477,438.902374 571.686890,431.749237 
	C611.544006,391.726013 651.410828,351.712402 691.243652,311.664978 
	C692.945435,309.954010 695.145935,308.549347 695.781006,305.864166 
	C693.960693,304.431488 691.897400,304.946533 689.987122,304.946411 
	C654.827820,304.943909 619.668579,305.000763 584.509277,304.991547 
	C581.691406,304.990814 578.835999,304.822418 576.062439,304.352051 
	C564.580444,302.404755 557.936523,293.576599 558.605591,281.375977 
	C559.172058,271.044830 567.812439,262.494659 578.465332,261.749298 
	C579.626770,261.668030 580.797180,261.704895 581.963440,261.704895 
	C636.619202,261.705109 691.274902,261.700226 745.930664,261.713745 
	C761.104797,261.717499 770.350586,270.816681 770.362366,285.902863 
	C770.405151,340.558502 770.416016,395.214203 770.378113,449.869843 
	C770.370361,461.017120 762.400085,470.077209 751.878601,471.248596 
	C741.442078,472.410492 732.053040,465.865234 729.307556,455.603668 
	C728.690491,453.297272 728.763733,450.985687 728.764099,448.658813 
	C728.770264,411.832855 728.781372,375.006927 728.791138,338.180969 
	C728.791687,336.036316 728.791199,333.891663 728.791199,331.743256 
	C726.764954,331.394196 726.141846,332.826935 725.285217,333.683014 
	C681.440674,377.499786 637.656128,421.376617 593.724792,465.106049 
	C590.669800,468.146973 590.770081,470.179382 593.004578,473.516144 
	C606.086182,493.050720 615.736145,514.205078 621.716736,536.946960 
	C632.161621,576.664856 631.710449,616.257141 620.168945,655.743103 
	C609.617920,691.840149 591.352051,723.376282 564.508545,749.703979 
	C532.864014,780.740234 495.128693,800.766052 451.087585,806.107300 
	C363.163940,816.770630 295.224304,782.813660 247.171082,709.415588 
	C227.539749,679.429993 217.900879,645.427734 215.590103,609.489075 
	C211.932053,552.596375 227.900452,501.938538 263.526245,457.476990 
	C270.097107,449.276428 277.302185,441.642914 285.507324,434.497314 
M256.428497,549.903870 
	C254.115128,559.119141 252.157928,568.441040 251.461777,577.897339 
	C248.407990,619.379395 256.535522,658.471497 280.221863,692.967712 
	C317.795532,747.688965 369.992218,774.385925 436.796753,769.802856 
	C476.030212,767.111328 509.802460,750.887024 538.085083,723.957153 
	C598.126221,666.788025 610.696838,576.501892 569.185486,504.736115 
	C523.768677,426.218414 426.429077,397.124420 345.741486,438.493195 
	C299.820831,462.036896 270.381683,499.386353 256.428497,549.903870 
z"/>
</svg>