<svg version="1.1" id="Layer_1" xmlns="http://www.w3.org/2000/svg" xmlns:xlink="http://www.w3.org/1999/xlink" x="0px" y="0px"
	 width="100%" viewBox="0 0 1024 1024" enable-background="new 0 0 1024 1024" xml:space="preserve">
<path fill="#3DBFA0" opacity="1.000000" stroke="none" 
	d="
M946.159180,494.021423 
	C947.117188,567.238770 932.102417,636.431702 899.554443,701.543091 
	C876.105835,748.451538 845.509216,790.167053 807.022522,826.018005 
	C763.056763,866.972839 713.229797,898.413147 656.698975,918.869751 
	C620.866516,931.836243 583.982361,940.397766 545.877502,943.447205 
	C432.438202,952.525330 332.514648,918.087097 244.257599,848.269775 
	C184.763596,801.205994 139.996826,742.299133 110.808533,672.026855 
	C97.149391,639.141907 88.111961,604.925598 82.486275,569.731018 
	C78.578613,545.284485 77.486458,520.750427 77.570824,496.069611 
	C77.733551,448.464020 86.694946,402.449066 102.056458,357.546051 
	C123.322174,295.384583 157.121277,240.915176 202.480606,193.486694 
	C258.851562,134.544235 326.770447,95.251068 405.407013,74.337234 
	C445.375214,63.707466 486.103790,58.405827 527.483643,60.201248 
	C568.281006,61.971394 608.120911,69.559204 646.906860,82.427132 
	C693.661377,97.938766 736.686646,120.512321 775.583130,150.806168 
	C842.843933,203.191071 890.069397,270.029541 919.288696,349.909210 
	C930.835938,381.476837 938.615234,413.939209 942.941956,447.217834 
	C944.937317,462.564972 945.777771,478.040955 946.159180,494.021423 
M391.723297,214.100052 
	C415.592926,204.317307 440.386932,198.371475 466.024567,195.522583 
	C503.288971,191.381729 539.821594,194.602814 575.580688,205.795197 
	C608.841431,216.205627 638.142639,233.050735 660.763672,260.139282 
	C672.825500,274.583252 683.600647,289.968170 685.960876,309.261475 
	C687.896301,325.082397 696.580200,334.570068 711.079712,339.610748 
	C713.124512,340.321625 715.167603,341.050446 717.247192,341.646301 
	C747.332642,350.266632 777.440002,358.811157 807.505432,367.500610 
	C817.412720,370.364014 827.446533,373.037903 836.054565,379.123077 
	C842.919739,383.976227 846.265442,390.495758 846.488403,399.053162 
	C846.765686,409.692230 843.007507,418.925476 837.992065,427.889771 
	C836.699463,430.200073 835.092529,432.332611 835.247131,435.239746 
	C835.603271,441.937744 834.339355,448.494202 833.376953,455.083588 
	C827.703796,493.926025 807.910950,525.209900 780.228699,551.723145 
	C761.063660,570.078857 736.712280,577.451050 710.775391,580.267822 
	C697.803101,581.676575 684.800842,580.775330 671.819397,581.214844 
	C633.764893,582.503418 612.387512,608.380371 617.954712,646.090332 
	C619.770630,658.390564 624.979919,669.303040 630.684509,680.038940 
	C637.702332,693.246216 642.984192,706.979675 644.745056,721.915955 
	C645.015808,724.212646 645.976685,726.693359 643.625183,729.131836 
	C641.250977,725.773010 639.023132,722.716858 636.894104,719.593384 
	C624.798767,701.848694 603.282043,694.780884 590.246338,678.011230 
	C591.210022,688.269836 595.572815,696.966370 600.854126,705.309814 
	C606.846741,714.777039 614.659729,722.844604 621.190735,731.901917 
	C638.871582,756.422302 646.916748,783.529602 643.193298,813.752014 
	C642.752380,817.330994 642.996094,821.247009 640.793030,824.626160 
	C638.765625,823.306152 639.028748,821.490784 638.709595,819.918762 
	C632.371460,788.706482 617.170044,762.880127 592.295898,742.768860 
	C582.156738,734.571045 570.672607,728.346985 560.429382,720.329529 
	C545.023438,708.271057 536.096802,692.521118 534.834595,673.031921 
	C533.405151,650.963013 538.974243,630.454407 550.698608,611.650513 
	C551.601135,610.203003 553.208374,608.950073 552.583496,606.561890 
	C532.618347,615.061401 517.459717,629.361633 503.801819,646.289429 
	C502.729462,643.435059 503.567322,641.851074 504.088776,640.380981 
	C515.604309,607.915100 537.372314,585.000366 569.154907,571.950928 
	C592.036621,562.556030 616.249939,562.206909 640.493286,563.244995 
	C664.115906,564.256470 687.733459,566.353760 711.361938,563.693726 
	C735.023865,561.029968 756.386292,553.163940 773.115051,535.346069 
	C778.087158,530.050049 782.394226,524.279907 785.604065,516.781738 
	C783.885803,517.459778 782.904480,517.683044 782.102417,518.189941 
	C776.614624,521.658569 771.109253,525.104187 765.710632,528.708618 
	C723.270081,557.044739 677.918945,561.237366 630.165894,544.967712 
	C612.393188,538.912537 595.885376,530.260864 580.545105,519.450806 
	C575.009277,515.549744 569.693481,514.704407 564.071899,519.064209 
	C563.068298,519.842468 562.007324,520.877319 560.363770,520.068848 
	C560.178955,519.741821 559.832703,519.345520 559.716187,518.890442 
	C557.853638,511.613831 559.878662,505.119171 564.991638,500.090240 
	C570.902527,494.276428 578.307678,494.787933 585.619873,497.301575 
	C592.775879,499.761505 593.223572,501.601837 588.192871,506.731384 
	C588.002747,506.925293 588.039978,507.342194 587.924744,507.867126 
	C590.325928,510.300507 593.317871,512.084961 596.310791,513.842896 
	C615.700378,525.231567 636.209229,533.765869 658.347046,538.160583 
	C682.289612,542.913513 705.781189,541.849731 728.359985,532.006042 
	C762.715698,517.028076 784.900696,491.294189 795.265137,455.272736 
	C796.672119,450.382812 796.434387,447.291443 791.094910,444.545837 
	C781.950439,439.843750 774.472229,432.917328 769.649170,423.524170 
	C761.492554,407.638580 766.668701,393.617706 783.220520,387.143219 
	C785.995117,386.057861 788.910095,385.200653 791.838318,384.663696 
	C800.175232,383.135010 808.588989,382.356384 817.124146,383.159485 
	C808.252136,379.382629 799.122192,376.819275 790.000671,374.240601 
	C762.929993,366.587738 735.829529,359.039429 708.784363,351.297821 
	C701.574158,349.233887 694.609985,346.459869 688.331360,342.172668 
	C678.789673,335.657440 672.289124,326.948151 670.571106,315.485382 
	C667.110046,292.392395 654.893250,274.171722 638.644592,258.565765 
	C604.019653,225.310349 561.096802,211.158737 514.397949,206.367752 
	C485.038605,203.355682 456.214630,206.645752 427.859192,214.414246 
	C387.784943,225.393280 352.433014,244.373749 324.761963,276.092010 
	C320.438293,281.048035 315.793823,285.837463 312.644775,292.676666 
	C323.885193,290.715302 334.264160,286.947327 345.968384,288.286804 
	C343.844086,291.613159 341.037811,292.423553 338.686401,293.773743 
	C309.512604,310.525238 283.269623,330.747437 262.880005,357.866089 
	C249.607819,375.518402 239.010086,394.366302 236.593567,416.905640 
	C235.800812,424.299744 236.758881,436.087128 239.240417,440.252258 
	C243.627243,405.987793 260.812256,380.051819 288.872406,360.791901 
	C271.063538,394.532928 261.130493,428.481049 282.907104,464.191681 
	C284.217712,458.189514 284.276398,452.055115 285.683594,446.111816 
	C287.049774,440.341583 288.145355,434.446045 291.626312,429.038605 
	C293.686829,431.143463 293.200043,432.913513 293.330017,434.498444 
	C295.387878,459.588867 306.080719,479.761047 327.343384,493.763367 
	C334.851562,498.707794 342.655579,503.205841 350.359619,507.849548 
	C368.702545,518.905945 381.642242,534.064331 386.647705,555.320312 
	C386.939514,556.559631 386.921112,558.007446 388.165436,558.997192 
	C390.376862,559.277588 392.316742,558.196106 394.278778,557.375000 
	C406.677979,552.185913 416.095856,543.400269 423.583862,532.478821 
	C442.096069,505.478424 444.593781,475.565552 439.064117,444.353180 
	C434.943390,421.093384 426.007690,399.321930 417.899933,377.291687 
	C412.183990,361.760345 407.651642,345.972778 409.694427,329.049133 
	C411.748474,312.032135 418.886963,297.897705 432.666168,287.416443 
	C433.873199,286.498260 434.929443,284.861359 436.876038,285.441467 
	C437.773438,286.758087 436.832886,287.742157 436.388214,288.744293 
	C428.805481,305.833069 428.009766,323.419434 432.066559,341.506989 
	C436.474182,361.158844 445.210144,379.206879 452.479065,397.796204 
	C464.252594,427.905426 472.038330,458.558441 467.466370,491.330170 
	C462.101562,529.785095 445.160706,562.386169 417.234497,588.932739 
	C389.725006,615.083069 356.660828,631.505432 319.914673,640.634949 
	C317.852112,641.147461 315.782410,641.978455 313.202850,640.732849 
	C315.081696,635.279785 316.920624,629.819031 318.842163,624.387573 
	C326.149841,603.731689 322.469116,585.106140 308.641418,568.280151 
	C302.188171,560.427673 295.818512,552.505188 290.081024,544.098328 
	C289.358856,543.040161 288.663696,541.756897 287.075897,542.013367 
	C285.820038,542.623718 285.459320,543.723206 285.102112,544.850159 
	C281.891174,554.980042 276.525574,563.975891 270.364868,572.525879 
	C261.696503,584.555908 252.707184,596.360107 244.836014,608.947388 
	C231.123932,630.875366 220.689270,654.164917 215.800110,679.700073 
	C215.227982,682.688171 213.945007,685.831482 215.664948,689.892090 
	C227.462677,670.291321 241.363297,653.689819 260.143097,641.029053 
	C260.967133,643.863281 259.399261,645.211731 258.568909,646.679565 
	C252.318634,657.728394 246.829514,669.139221 242.721283,681.145386 
	C232.808502,710.115173 230.046875,739.273376 241.241974,768.614319 
	C243.885620,775.543091 247.446152,781.979797 252.610001,787.871582 
	C253.130005,766.632690 255.349304,745.959045 263.878571,725.914612 
	C266.501221,728.774780 266.227600,731.614746 266.802795,734.149353 
	C274.917236,769.906982 293.965332,799.500793 319.297150,825.164429 
	C353.658569,859.975952 395.179504,882.830444 442.104095,896.090332 
	C482.934845,907.628174 524.544739,910.910645 566.759094,907.732239 
	C568.708374,907.585388 570.290527,907.045715 571.595581,905.572327 
	C583.912842,891.665771 592.484802,875.966675 594.826294,857.262939 
	C597.401184,836.695618 593.092896,817.205627 585.701721,798.171448 
	C585.032288,796.447388 583.496094,794.781616 584.933472,791.632019 
	C614.255737,823.886475 623.633118,859.402283 606.645630,899.995972 
	C608.624817,901.060120 609.925903,900.631836 611.204041,900.329407 
	C626.941772,896.604919 642.396301,891.913757 657.519714,886.208374 
	C694.630310,872.208252 728.252319,852.135742 759.397766,827.684448 
	C807.920410,789.591003 845.858337,742.838013 873.173523,687.659546 
	C896.599731,640.336975 910.401672,590.169006 915.036011,537.493286 
	C917.336853,511.341095 917.068604,485.186249 914.372620,459.162476 
	C911.470581,431.148804 905.501404,403.673889 897.121643,376.706024 
	C879.394104,319.655396 851.732422,267.806519 810.901550,224.391418 
	C716.288391,123.789955 599.699646,79.619408 461.834473,94.323853 
	C416.567474,99.151947 373.691742,112.518860 332.880707,133.007446 
	C261.847839,168.668457 207.170181,221.711609 166.376205,289.221283 
	C130.022018,349.383636 111.406075,415.309387 107.514725,485.299225 
	C105.622475,519.333252 108.827095,553.143860 115.847351,586.552002 
	C127.047974,639.853821 147.512726,689.195251 178.678513,733.981445 
	C179.652191,735.380615 180.301529,737.155457 182.655991,737.806458 
	C182.655991,735.391907 182.718460,733.409912 182.646454,731.432800 
	C181.820572,708.754150 185.088165,686.665649 191.610550,664.944580 
	C200.237518,636.214722 213.202438,609.451416 227.358505,583.137573 
	C238.099045,563.172668 247.967621,542.778625 252.297028,520.219727 
	C253.680603,513.010376 253.699753,506.447937 247.003448,501.415344 
	C244.387756,499.449585 242.378189,496.631348 240.248993,494.071259 
	C216.765198,465.835144 209.211227,433.890533 218.522034,398.287415 
	C224.014862,377.283722 236.151413,359.901825 250.439270,344.101227 
	C263.164093,330.029175 275.249634,315.697693 285.919617,299.846527 
	C312.148590,260.881226 347.335205,232.247604 391.723297,214.100052 
z"/>
<path fill="#3DBFA0" opacity="1.000000" stroke="none" 
	d="
M589.029175,362.969238 
	C576.809875,362.122833 568.689697,356.179718 564.130066,344.611633 
	C554.297302,350.957703 544.527283,356.747925 532.103516,356.389587 
	C532.593567,355.491028 532.704956,354.925293 533.032471,354.738525 
	C545.149902,347.827454 554.177429,337.616272 562.881592,327.020966 
	C568.433228,320.263184 574.762878,314.357819 583.064209,311.093750 
	C594.711914,306.513885 603.925720,309.842072 610.111206,320.778412 
	C614.945312,329.325470 618.187439,338.694580 623.702271,346.909943 
	C625.430847,349.485046 628.010071,351.537689 628.892639,354.626434 
	C628.586304,354.989868 628.349426,355.464417 628.182800,355.440918 
	C618.936340,354.137939 610.431030,356.636719 602.117432,360.341797 
	C598.113831,362.126038 593.751953,362.450806 589.029175,362.969238 
M582.525879,331.732666 
	C583.897766,334.795166 586.072937,336.708282 589.507141,335.343292 
	C592.578369,334.122620 593.309631,331.337006 592.508911,328.346771 
	C591.815002,325.755341 590.151428,323.848755 587.147400,324.417023 
	C583.634766,325.081512 581.493103,327.005737 582.525879,331.732666 
z"/>
</svg>