<svg version="1.1" id="Layer_1" xmlns="http://www.w3.org/2000/svg" xmlns:xlink="http://www.w3.org/1999/xlink" x="0px" y="0px"
	 width="100%" viewBox="0 0 1024 1024" enable-background="new 0 0 1024 1024" xml:space="preserve">
<path fill="#3DBFA0" opacity="1.000000" stroke="none" 
	d="
M776.681763,893.725281 
	C726.506958,930.672241 671.479858,956.361572 611.166565,970.575806 
	C585.841614,976.544189 560.197144,980.210449 534.149231,981.452759 
	C456.669678,985.147766 383.246002,969.412598 314.622162,933.727661 
	C205.829346,877.154663 129.318924,791.362427 86.404007,676.152222 
	C71.439499,635.978271 62.332130,594.463074 58.585873,551.751709 
	C51.247692,468.088623 64.347099,387.849365 98.337578,310.986755 
	C124.385384,252.084885 161.012894,200.775818 208.306366,157.151215 
	C259.290741,110.122093 318.463348,77.407066 384.912445,57.879799 
	C423.096344,46.658783 462.101837,40.516872 501.977997,39.581654 
	C593.569336,37.433556 678.177063,60.923862 755.072266,110.242264 
	C834.917053,161.452438 892.514160,231.897537 929.423157,319.270020 
	C947.117676,361.157104 957.673279,404.931091 962.995728,449.932343 
	C968.462341,496.152435 967.097717,542.281372 959.625427,588.293884 
	C951.443481,638.676147 936.187805,686.691650 913.033997,732.149475 
	C891.940674,773.561890 865.173218,810.948181 832.768127,844.323853 
	C815.430359,862.180908 796.818420,878.532104 776.681763,893.725281 
M92.287178,607.372070 
	C110.090164,688.921021 147.398560,760.370911 204.878906,820.796204 
	C272.478882,891.859680 354.499023,936.538147 451.802704,952.089478 
	C489.737000,958.152344 527.783630,958.383240 565.815857,953.412109 
	C605.866821,948.176941 644.317749,937.106873 681.154785,920.470398 
	C743.952637,892.109375 797.112671,851.202454 840.126099,797.408081 
	C897.324768,725.873047 929.852661,644.220520 938.890381,553.142090 
	C942.375366,518.022400 942.042297,482.899719 937.421692,447.948242 
	C930.243774,393.652435 914.528076,341.968109 888.705261,293.460297 
	C856.488953,232.942368 812.900452,182.308914 756.621277,143.189987 
	C677.474487,88.175995 589.657410,61.830654 492.999237,66.067383 
	C467.970642,67.164436 443.216766,70.282860 418.825226,75.817772 
	C328.314453,96.356392 252.466995,141.812012 191.510254,211.635208 
	C144.304001,265.707794 112.923317,328.336884 95.446213,397.777466 
	C84.589500,440.913635 79.530190,484.790741 82.019707,529.440613 
	C83.469032,555.434692 86.524025,581.136841 92.287178,607.372070 
z"/>
<path fill="#3DBFA0" opacity="1.000000" stroke="none" 
	d="
M606.682251,500.367157 
	C613.826782,511.650818 620.633667,522.716431 629.224609,532.559021 
	C639.484863,544.314148 651.393066,554.161865 664.009521,563.230347 
	C681.526794,575.821350 698.254211,589.320312 710.916870,607.051208 
	C736.176025,642.420105 743.366272,681.229126 730.190613,722.712463 
	C717.498657,762.672668 683.511292,787.360962 643.130005,792.343628 
	C618.213867,795.418091 594.414551,790.390686 570.912781,782.980042 
	C549.357910,776.183228 527.559570,771.210205 504.716583,772.216980 
	C485.205353,773.076965 466.643280,778.208252 448.177979,783.982422 
	C428.837769,790.030334 409.183228,793.710388 388.747559,793.253723 
	C337.213531,792.102356 293.457611,753.512207 286.987793,702.410522 
	C281.709045,660.716309 293.834076,624.413025 322.556213,593.701721 
	C333.878052,581.595825 346.769226,571.294312 360.246399,561.757690 
	C382.076965,546.310120 399.419373,526.952698 413.409332,504.170563 
	C429.793549,477.489410 452.543793,458.329956 483.434570,450.564301 
	C522.054565,440.855682 556.295654,450.039978 586.027893,476.226898 
	C593.921509,483.179199 600.699402,491.230286 606.682251,500.367157 
M626.969055,564.560059 
	C611.199524,550.853333 598.900757,534.369019 588.208008,516.542358 
	C582.252808,506.613953 574.634155,498.060822 565.726501,490.607361 
	C537.877014,467.304199 496.491089,464.573639 465.845398,483.967224 
	C451.111938,493.291107 440.300476,506.177368 431.362396,520.855347 
	C420.801910,538.197510 408.092590,553.708679 392.661163,566.979675 
	C382.035034,576.118164 370.452881,583.995117 359.419067,592.594238 
	C338.309418,609.045898 321.450195,628.584595 314.199219,654.980408 
	C306.890350,681.587280 307.645782,707.668213 322.924103,731.473267 
	C343.303345,763.225952 373.996246,772.139038 409.724976,768.204407 
	C426.041962,766.407532 441.481049,760.870422 457.095459,756.198059 
	C482.479614,748.602417 508.170654,745.915344 534.572876,749.516052 
	C552.023254,751.895935 568.616699,757.296753 585.386353,762.181152 
	C601.626709,766.911377 618.055969,769.745789 635.113953,768.955444 
	C675.062927,767.104370 708.207947,735.696228 711.635193,695.835449 
	C714.845337,658.499573 701.689453,627.654114 674.250427,602.557800 
	C659.472839,589.041931 642.410645,578.376343 626.969055,564.560059 
z"/>
<path fill="#3DBFA0" opacity="1.000000" stroke="none" 
	d="
M482.673828,409.582581 
	C471.360931,427.569336 456.433655,440.381042 435.484558,444.248322 
	C410.694733,448.824646 389.824768,440.135193 372.341156,422.887054 
	C355.223755,406.000214 345.463593,384.972595 340.230164,361.790894 
	C333.354370,331.334534 335.211334,301.550079 348.588501,273.001648 
	C355.667969,257.893250 365.944092,245.270721 380.493713,236.777924 
	C404.623688,222.692917 432.751678,225.834717 455.309845,244.684097 
	C473.538849,259.916107 485.171082,279.456818 492.026672,301.904968 
	C501.388977,332.561218 501.762573,363.182861 490.469788,393.542267 
	C488.431702,399.021393 485.779449,404.211731 482.673828,409.582581 
M467.583588,305.846741 
	C461.013977,287.596710 451.269409,271.575897 435.030579,260.273560 
	C420.695190,250.296051 403.890625,249.833069 390.106781,259.313049 
	C380.529236,265.900085 373.969696,275.173889 369.509583,285.788177 
	C357.512512,314.338928 357.822449,343.195923 368.578461,371.938995 
	C374.736389,388.394623 383.708618,403.118683 398.662598,413.286774 
	C408.207245,419.776794 418.600189,423.308533 430.276611,421.048096 
	C445.570251,418.087402 455.637787,408.128754 462.723969,395.129028 
	C478.317535,366.522430 477.415833,336.762604 467.583588,305.846741 
z"/>
<path fill="#3DBFA0" opacity="1.000000" stroke="none" 
	d="
M526.612305,375.193726 
	C518.292847,326.576050 528.885681,283.856018 563.901489,248.573059 
	C576.013062,236.369080 591.034302,229.287506 608.310242,228.057144 
	C623.001587,227.010834 636.301819,231.560349 648.000671,240.358902 
	C666.299438,254.121155 676.648621,273.137268 681.590881,294.947266 
	C691.198486,337.344330 684.704773,377.014618 658.870361,412.597748 
	C647.041748,428.889984 631.361450,440.359955 611.273193,444.136169 
	C584.869263,449.099640 563.522766,439.610260 546.765747,419.210754 
	C536.304016,406.474945 530.283569,391.569458 526.612305,375.193726 
M592.953125,257.411621 
	C583.941650,262.192810 576.694580,268.994171 570.770447,277.195862 
	C553.367554,301.289490 546.260071,328.385712 548.503052,357.801483 
	C549.844238,375.391235 555.477539,391.735077 566.894043,405.552002 
	C575.227539,415.637634 585.740173,422.035065 599.266479,421.650177 
	C615.924194,421.176147 628.101624,412.140503 637.954529,399.736664 
	C652.253845,381.735168 659.485046,360.949463 661.159973,338.067078 
	C662.783997,315.880585 658.988403,294.925781 647.564331,275.665344 
	C634.805847,254.155045 614.779114,247.354477 592.953125,257.411621 
z"/>
<path fill="#3DBFA0" opacity="1.000000" stroke="none" 
	d="
M695.848999,402.885376 
	C709.802002,386.312500 726.253906,374.543854 747.948303,371.559265 
	C769.881409,368.541901 787.543213,376.447296 801.294495,393.226288 
	C814.369019,409.179413 818.721863,428.373505 818.804871,448.346924 
	C818.928223,478.037140 810.361023,505.197937 791.623596,528.610962 
	C781.161682,541.683594 768.558533,552.097961 752.447876,557.739563 
	C722.683777,568.162170 692.942993,556.259705 678.369751,528.267029 
	C668.388428,509.094604 665.956116,488.838837 668.548828,467.662506 
	C671.496521,443.587463 680.406677,422.063049 695.848999,402.885376 
M794.728271,448.595764 
	C794.632751,440.209595 793.299500,432.035645 790.634888,424.072662 
	C781.099548,395.577087 755.649963,386.772888 730.644653,403.388641 
	C724.358215,407.565918 718.775024,412.610352 714.250122,418.646393 
	C694.386963,445.143066 685.970215,474.337952 695.377075,506.910400 
	C699.683899,521.823364 708.435669,533.780029 724.915833,537.073547 
	C738.575317,539.803284 750.354858,534.517090 760.392700,525.901917 
	C783.685059,505.910889 794.000610,479.820007 794.728271,448.595764 
z"/>
<path fill="#3DBFA0" opacity="1.000000" stroke="none" 
	d="
M206.973236,422.234070 
	C211.447220,407.159027 218.371353,393.915100 230.515503,384.243500 
	C251.475891,367.550629 274.216644,366.957214 297.482452,378.732849 
	C317.253693,388.739807 330.864014,405.015106 340.598480,424.552521 
	C353.969543,451.388702 358.362061,479.577698 351.184570,508.955170 
	C346.865295,526.633850 338.146179,542.007080 322.436371,551.965393 
	C298.695923,567.014221 274.817139,563.924072 252.401184,549.228027 
	C225.958405,531.891907 212.415924,505.720367 205.860306,475.540527 
	C202.021194,457.866547 202.218521,440.181763 206.973236,422.234070 
M242.435898,405.929871 
	C239.212311,409.345184 236.526627,413.137115 234.500946,417.378784 
	C227.691208,431.637848 226.059158,446.603577 228.121155,462.162567 
	C231.340836,486.456482 241.078720,507.457764 259.250488,524.172607 
	C266.756561,531.076904 275.633820,535.467041 285.749664,537.300476 
	C300.247559,539.928162 314.571655,531.940613 322.697662,516.515564 
	C330.612335,501.491669 332.179077,485.462097 329.641541,468.965546 
	C325.645264,442.985504 314.735474,420.699860 293.325226,404.583710 
	C275.859253,391.436554 257.080261,391.941467 242.435898,405.929871 
z"/>
<path fill="#3DBFA0" opacity="1.000000" stroke="none" 
	d="
M598.948242,619.459106 
	C603.062622,642.770020 595.000916,661.379517 578.729004,677.063843 
	C560.126404,694.994751 540.661438,711.962830 520.935242,728.632751 
	C514.825012,733.796265 507.874664,734.101501 501.767700,728.927734 
	C480.790009,711.155945 459.822937,693.343689 440.467499,673.780823 
	C430.477539,663.683838 424.280029,651.523071 422.568909,637.205994 
	C417.862610,597.827942 456.519562,567.857727 493.411072,582.323792 
	C498.738037,584.412598 503.689148,587.123718 507.950562,590.942444 
	C510.108978,592.876587 511.644470,593.349304 514.271790,591.201416 
	C546.158875,565.132690 590.607117,582.228638 598.948242,619.459106 
M528.191895,690.681580 
	C539.302368,680.614990 550.431763,670.569092 561.515076,660.472717 
	C566.882446,655.583191 571.041565,649.815125 573.834656,643.076233 
	C580.566467,626.834534 572.502380,608.822876 556.240112,603.842102 
	C543.659363,599.988831 531.310181,605.007202 522.245178,617.656860 
	C516.015991,626.349304 506.706665,626.483887 500.399933,617.871826 
	C497.821838,614.351379 495.106384,610.985107 491.548340,608.437500 
	C482.039948,601.629517 471.835175,600.516479 461.377167,605.744446 
	C451.403412,610.730286 446.607117,619.218933 446.201538,630.337097 
	C445.793732,641.517029 450.806213,650.307495 458.406830,657.792542 
	C474.321808,673.465393 491.230408,688.053467 508.038086,702.750061 
	C510.457367,704.865540 512.281555,704.672913 514.501770,702.667175 
	C518.826843,698.759888 523.258301,694.970398 528.191895,690.681580 
z"/>
</svg>