<svg version="1.1" id="Layer_1" xmlns="http://www.w3.org/2000/svg" xmlns:xlink="http://www.w3.org/1999/xlink" x="0px" y="0px"
	 width="100%" viewBox="0 0 1024 1024" enable-background="new 0 0 1024 1024" xml:space="preserve">
<path fill="#3DBFA0" opacity="1.000000" stroke="none" 
	d="
M957.580322,678.443237 
	C937.002014,736.102661 906.936584,787.780701 867.036194,833.708923 
	C824.438843,882.741638 774.174683,921.968018 716.075806,951.010437 
	C672.238770,972.923767 625.996521,987.320190 577.472046,994.401245 
	C552.029907,998.114014 526.462952,999.930725 500.785919,999.043823 
	C418.412262,996.198486 342.126312,973.042725 272.254517,929.288696 
	C210.318405,890.504028 159.301270,840.402100 119.158684,779.354248 
	C82.512878,723.624207 58.889240,662.636353 46.986641,597.093811 
	C41.046574,564.384338 38.606422,531.338928 39.950069,498.129059 
	C42.630970,431.867249 57.081913,368.304779 84.420456,307.739319 
	C103.606888,265.233948 128.059174,226.093903 158.402771,190.691788 
	C194.199478,148.927505 236.089401,114.491699 283.796082,87.103302 
	C331.822235,59.531509 383.242706,41.414032 437.735382,32.006359 
	C477.972626,25.059761 518.417969,23.716921 559.135132,27.448591 
	C637.138855,34.597519 708.414246,60.491306 773.144104,104.174530 
	C830.441895,142.842209 877.069946,191.946136 913.106812,251.040039 
	C942.167114,298.693573 962.404053,349.871735 974.703918,404.242188 
	C982.665222,439.434235 986.836548,475.107697 986.892090,511.170654 
	C986.980286,568.483154 976.946167,624.101318 957.580322,678.443237 
M187.890839,827.622986 
	C214.390045,856.245361 243.681015,881.610718 276.447205,902.821899 
	C368.688965,962.534607 469.050934,986.112854 578.127319,969.726074 
	C630.729492,961.823547 680.229492,944.491272 726.356323,918.004944 
	C811.972656,868.843750 876.343750,799.891785 918.237488,710.300903 
	C943.858276,655.510193 958.310181,597.826294 961.516113,537.454590 
	C963.188782,505.956024 961.565491,474.545074 956.775330,443.297516 
	C946.454529,375.971008 923.059570,313.569214 886.451599,256.188354 
	C854.227173,205.678436 813.294434,163.450012 764.071716,129.278671 
	C683.643311,73.443665 594.592712,47.143337 496.658936,50.985264 
	C462.038147,52.343437 428.112518,57.713799 394.828369,67.251869 
	C323.931854,87.568329 262.085205,123.692886 208.592880,174.255295 
	C172.438004,208.429901 142.893219,247.677109 119.688515,291.681641 
	C79.751228,367.417175 60.543503,447.933563 64.120949,533.655396 
	C65.536079,567.564392 70.937660,600.865906 80.088501,633.542358 
	C100.534889,706.553833 136.198227,771.142090 187.890839,827.622986 
z"/>
<path fill="#3DBFA0" opacity="1.000000" stroke="none" 
	d="
M523.780579,326.673004 
	C574.341553,310.948517 621.192322,317.844879 664.564758,347.533600 
	C668.242676,350.051178 670.366943,350.197510 673.672241,346.813782 
	C698.940796,320.945679 724.435059,295.298187 749.850220,269.573273 
	C750.886414,268.524445 751.833923,267.388062 753.080750,266.006561 
	C750.731079,264.866272 748.563721,265.245056 746.496033,265.242828 
	C723.664124,265.218262 700.832031,265.295288 678.000427,265.218903 
	C669.952515,265.191956 663.566956,260.042297 661.980103,252.725296 
	C660.408386,245.478134 663.992981,237.900848 670.564331,234.696182 
	C673.303894,233.360168 676.237671,232.833389 679.283691,232.834610 
	C717.947937,232.850113 756.612305,232.806107 795.276367,232.895981 
	C806.653137,232.922424 813.037354,239.760666 813.066589,251.811432 
	C813.141052,282.476013 813.103333,313.140900 813.106506,343.805664 
	C813.107117,349.971863 813.228455,356.142120 813.049072,362.303375 
	C812.753540,372.453339 805.865967,379.430115 796.530518,379.282166 
	C787.131531,379.133209 780.747009,372.115173 780.734802,361.767792 
	C780.707458,338.602631 780.748169,315.437347 780.715088,292.272217 
	C780.712830,290.690002 781.252441,288.979858 780.122192,287.447510 
	C778.177124,287.987854 777.174316,289.604736 775.922485,290.857697 
	C749.772705,317.029449 723.696594,343.275085 697.444702,369.343842 
	C694.286133,372.480377 694.105225,374.551788 696.923279,378.010101 
	C723.173035,410.223022 734.770081,447.359192 732.053955,488.604736 
	C729.615295,525.635864 715.066650,557.799438 689.842224,585.079712 
	C665.084839,611.854675 634.586365,628.244995 598.748291,634.199280 
	C558.755676,640.843994 521.630127,632.450378 487.364380,610.993652 
	C481.175385,607.118164 481.303436,607.155823 476.951019,612.703003 
	C451.199646,645.523010 417.744507,665.219604 376.442230,671.419983 
	C369.376740,672.480713 369.354980,672.377380 369.359283,679.393433 
	C369.367035,692.059204 369.347656,704.724976 369.344360,717.390747 
	C369.342743,723.674988 369.347473,723.692017 375.824432,723.696655 
	C391.323486,723.707642 406.822784,723.648254 422.321442,723.726257 
	C428.972046,723.759766 433.986481,727.365601 436.144714,733.301575 
	C438.332092,739.317688 436.626312,745.852661 431.806152,750.113525 
	C428.894196,752.687500 425.508026,753.553650 421.666107,753.525818 
	C406.334595,753.414612 390.997894,753.629150 375.672333,753.297852 
	C370.495331,753.186035 369.134277,754.974426 369.232666,759.921997 
	C369.517548,774.248718 369.368805,788.584839 369.326111,802.917053 
	C369.299072,811.991760 363.565521,818.209534 355.223816,818.361938 
	C346.547943,818.520569 340.129242,812.437805 340.006836,803.329590 
	C339.809814,788.666565 339.826599,773.997009 340.042999,759.334412 
	C340.109192,754.848816 338.938293,753.327881 334.124390,753.421814 
	C318.470520,753.727417 302.804749,753.515259 287.144653,753.375366 
	C278.691742,753.299927 272.516876,747.094971 272.462708,738.927246 
	C272.406097,730.391357 278.472351,723.842529 287.048248,723.750244 
	C302.545471,723.583435 318.049683,723.504395 333.542633,723.810608 
	C338.642059,723.911377 340.183228,722.309082 340.058990,717.281433 
	C339.746246,704.623108 339.623749,691.940796 340.080170,679.291748 
	C340.277100,673.833862 338.243835,672.163696 333.273193,671.440613 
	C297.288605,666.205872 266.794922,650.188904 242.517090,623.188599 
	C214.369339,591.884521 200.988922,554.785095 202.986938,512.739868 
	C206.452148,439.820129 262.109009,378.530090 334.137665,368.078125 
	C367.545624,363.230286 399.104034,369.735138 428.688599,385.908508 
	C432.026459,387.733276 435.288910,389.696014 439.025024,391.847382 
	C460.132355,360.813599 487.769135,338.549683 523.780579,326.673004 
M504.663055,488.024841 
	C511.053497,517.991333 508.708344,547.303833 497.461212,575.758606 
	C495.539520,580.620422 496.725769,582.708801 500.653473,585.307190 
	C530.140259,604.814087 562.449707,611.579712 596.990723,605.279663 
	C665.347473,592.812073 711.626465,529.188660 702.479065,460.341919 
	C693.417236,392.138367 630.017639,339.896362 559.782227,348.114227 
	C520.261353,352.738342 489.139038,371.292084 466.165070,403.657928 
	C461.469666,410.272919 461.620697,410.281372 467.309174,416.431549 
	C486.039459,436.682037 498.597626,460.190369 504.663055,488.024841 
M431.511719,619.005981 
	C442.535339,610.311279 452.286163,600.489624 459.471497,588.140442 
	C443.883911,572.714355 432.656189,554.906616 424.767822,535.028015 
	C409.841675,497.414215 410.421021,459.622620 424.222809,421.856964 
	C425.341858,418.794922 425.070740,417.153534 422.278320,415.335175 
	C404.760010,403.927612 385.675659,396.769012 364.827423,395.449005 
	C323.801270,392.851440 289.139526,406.800903 262.081451,437.846313 
	C219.965759,486.168152 219.636902,558.983887 265.884827,606.955261 
	C310.543762,653.278442 378.641632,658.081787 431.511719,619.005981 
M445.266937,451.707520 
	C437.663361,491.730591 446.660187,527.481934 472.300842,559.789062 
	C489.000122,528.949219 473.781219,453.618256 448.743195,440.006256 
	C446.668884,443.337738 446.413513,447.228424 445.266937,451.707520 
z"/>
</svg>