<svg version="1.1" id="Layer_1" xmlns="http://www.w3.org/2000/svg" xmlns:xlink="http://www.w3.org/1999/xlink" x="0px" y="0px"
	 width="100%" viewBox="0 0 1024 1024" enable-background="new 0 0 1024 1024" xml:space="preserve">
<path fill="#3DBFA0" opacity="1.000000" stroke="none" 
	d="
M881.955505,798.909729 
	C838.961365,858.640137 785.210999,905.532776 720.597473,939.983521 
	C676.860107,963.303467 630.488403,978.922424 581.586731,986.818237 
	C541.922546,993.222534 502.121216,993.885803 462.118195,989.543457 
	C391.851135,981.915955 327.437164,958.023926 268.314056,919.921936 
	C185.757553,866.718079 124.979095,794.912170 86.545082,704.305359 
	C68.803680,662.480713 57.030552,619.087463 51.154785,574.108459 
	C46.960064,541.997742 46.197300,509.769592 48.511139,477.416595 
	C51.616028,434.002808 60.008175,391.723785 74.085686,350.559784 
	C94.218880,291.688416 124.678894,238.684372 165.112625,191.460678 
	C219.011856,128.510208 285.416443,83.694603 363.552277,56.425411 
	C397.274048,44.656616 432.004883,36.917599 467.663483,33.562485 
	C584.835205,22.537811 690.949646,51.732010 785.429871,121.809578 
	C839.265503,161.740372 880.817322,212.527573 912.871216,271.247681 
	C939.384949,319.818665 956.247070,371.687653 966.007019,425.994049 
	C972.455200,461.873047 974.753418,498.100891 972.934998,534.442993 
	C968.095520,631.159546 938.126099,719.392090 881.955505,798.909729 
M797.045715,853.527161 
	C844.169189,810.847656 880.276306,760.168274 906.276001,702.277283 
	C930.349243,648.675842 943.547913,592.334778 946.506165,533.728943 
	C948.461792,494.986633 945.220581,456.470978 937.367432,418.475037 
	C922.220947,345.192230 892.661926,278.460541 845.696289,219.824936 
	C805.479736,169.615479 756.610535,130.017334 698.746338,101.944214 
	C634.433716,70.742615 566.367615,56.978863 494.894714,60.084702 
	C455.389740,61.801384 416.846008,68.767899 379.257050,80.910057 
	C299.035431,106.823624 232.760025,153.358353 179.169052,217.992661 
	C137.661407,268.053680 108.572647,324.813751 91.317429,387.530609 
	C76.378540,441.828400 71.011452,497.032745 76.116646,553.216614 
	C79.936096,595.250671 89.001701,636.068359 103.942406,675.530640 
	C134.933914,757.387207 185.049515,825.079041 255.023209,877.767822 
	C307.288605,917.122559 365.341705,944.091858 429.574371,957.265076 
	C470.811035,965.722168 512.400574,968.067688 554.296997,963.503540 
	C588.873657,959.736816 622.558777,952.036316 655.181458,939.913818 
	C707.803772,920.359619 754.921265,891.716125 797.045715,853.527161 
z"/>
<path fill="#3DBFA0" opacity="1.000000" stroke="none" 
	d="
M286.781677,634.823853 
	C315.108215,598.615234 350.370026,572.993286 394.448700,560.160950 
	C411.992157,555.053528 429.998383,552.958984 448.215973,552.915710 
	C490.369598,552.815552 532.524902,552.704041 574.677307,552.960876 
	C624.980530,553.267334 668.907166,570.731750 706.105469,604.294739 
	C748.051025,642.140991 771.902771,689.802063 780.468323,745.459534 
	C783.552490,765.500000 783.348694,785.617859 783.198120,805.757690 
	C783.135376,814.154602 777.001953,820.252014 768.354431,821.074585 
	C766.536133,821.247498 764.692078,821.171631 762.859863,821.171570 
	C594.243958,821.166687 425.628021,821.158325 257.012115,821.149048 
	C243.324997,821.148254 237.938568,815.471252 237.625305,801.673157 
	C236.957184,772.246521 238.617599,743.136658 246.823181,714.624084 
	C255.168915,685.624573 268.287872,659.099060 286.781677,634.823853 
M349.663513,613.183594 
	C333.561218,624.456604 319.608490,637.982971 307.873810,653.721069 
	C278.356354,693.308655 264.380493,737.919800 265.051727,787.224365 
	C265.155426,794.843323 265.017761,794.842224 272.752350,794.842712 
	C410.547455,794.851746 548.342529,794.863586 686.137634,794.869019 
	C707.631653,794.869873 729.125977,794.774414 750.619263,794.890503 
	C754.486633,794.911377 755.818237,793.669739 755.843384,789.719177 
	C755.909180,779.376099 755.773621,769.016968 754.522400,758.784241 
	C749.214600,715.374878 733.564575,676.211975 704.415161,643.247437 
	C668.688843,602.845276 624.167053,580.996887 569.531555,581.261108 
	C530.210022,581.451233 490.885162,581.515991 451.564972,581.217590 
	C414.345490,580.935181 380.732941,591.714172 349.663513,613.183594 
z"/>
<path fill="#3DBFA0" opacity="1.000000" stroke="none" 
	d="
M404.068481,249.059814 
	C437.873413,218.406921 477.428314,203.530197 522.445618,207.108963 
	C579.890259,211.675659 622.441956,240.918533 650.498352,290.986176 
	C666.922974,320.296570 672.586365,352.210480 670.098328,385.481537 
	C664.476379,460.659027 607.750488,523.106750 533.190979,533.615234 
	C474.505249,541.886597 425.506775,521.395020 387.883820,475.746643 
	C361.186096,443.353973 348.914825,405.268616 351.144836,363.422119 
	C353.527252,318.714844 370.947662,280.277069 404.068481,249.059814 
M385.160187,332.604156 
	C381.492645,344.455872 379.607269,356.656250 379.483337,368.990021 
	C379.207214,396.464813 385.858887,422.283997 401.262451,445.150513 
	C431.767059,490.434570 474.359100,512.137268 528.959229,505.251617 
	C588.859375,497.697571 637.309631,444.209747 641.671143,383.596497 
	C644.117188,349.602325 635.743652,318.731232 616.344299,290.594696 
	C579.564941,237.250504 504.349457,220.004227 448.305786,252.344604 
	C416.793884,270.528748 396.254486,297.347229 385.160187,332.604156 
z"/>
</svg>