<svg version="1.1" id="Layer_1" xmlns="http://www.w3.org/2000/svg" xmlns:xlink="http://www.w3.org/1999/xlink" x="0px" y="0px"
	 width="100%" viewBox="0 0 1024 1024" enable-background="new 0 0 1024 1024" xml:space="preserve">
<path fill="#3DBFA0" opacity="1.000000" stroke="none" 
	d="
M292.021790,96.959663 
	C319.800201,80.837624 348.485321,67.607460 378.670990,57.674603 
	C406.102203,48.648129 434.111755,42.291100 462.770752,38.601727 
	C480.469574,36.323299 498.206543,34.694443 516.027039,34.966026 
	C622.745605,36.592419 716.949036,71.854408 798.007690,141.307205 
	C853.035156,188.455994 893.332825,246.413116 921.385925,313.086029 
	C937.101868,350.437805 947.419800,389.206146 953.460571,429.245117 
	C957.902405,458.686035 959.433533,488.273438 957.965698,517.906433 
	C953.983215,598.301758 932.546204,673.707764 891.317566,743.114197 
	C854.209900,805.583069 805.742554,857.284241 744.417053,896.617676 
	C694.461914,928.658386 640.452148,950.563965 581.920349,960.801086 
	C538.432861,968.406921 494.844055,968.772339 451.212677,961.521057 
	C364.781372,947.156677 289.137482,910.268677 223.552139,852.499146 
	C170.434418,805.711365 129.955429,749.647766 102.230743,684.535400 
	C85.780540,645.901489 74.675667,605.692627 68.637604,564.093811 
	C65.545639,542.791992 63.889057,521.385071 63.885368,499.889587 
	C63.874035,433.843567 77.875954,370.729370 104.240105,310.276062 
	C130.187485,250.778458 167.230026,199.131638 214.673904,154.941742 
	C238.280090,132.954620 263.988495,113.690651 292.021790,96.959663 
M292.530670,573.850098 
	C287.248016,596.245789 278.147614,617.081848 266.875458,637.055847 
	C258.190704,652.445068 250.027008,668.106934 243.953674,684.746887 
	C241.958893,690.212219 240.251221,695.802979 238.778473,701.432251 
	C237.351425,706.886780 236.394989,712.464417 235.231857,717.987976 
	C244.928024,700.764648 255.028030,684.138062 268.304901,668.490540 
	C269.103668,671.372803 268.158691,672.819641 267.672729,674.332214 
	C265.381165,681.464600 262.850464,688.529968 260.831970,695.738647 
	C249.525925,736.115845 254.306992,774.483582 275.349243,810.827820 
	C294.530396,843.957520 321.994202,868.823364 353.825684,889.176941 
	C418.728180,930.676331 490.125275,940.925354 565.322937,932.570801 
	C571.424622,931.892944 576.093262,929.483887 580.389832,925.016968 
	C601.451782,903.119934 612.700073,877.294250 612.853943,846.776123 
	C612.864197,844.750061 612.239868,842.516724 614.257690,839.913574 
	C624.781433,858.929504 626.758667,878.800781 625.128723,899.426025 
	C636.396362,879.814514 640.110352,858.676636 638.316650,836.453064 
	C636.441467,813.219727 628.327026,792.090820 616.207703,772.355591 
	C614.986084,770.366272 613.193909,768.518555 613.143372,764.569153 
	C647.222168,784.847351 668.820923,813.218872 679.100952,850.442261 
	C679.542175,850.070190 679.896240,849.921021 679.971924,849.683228 
	C680.425110,848.258850 680.944702,846.837280 681.205383,845.372620 
	C685.750610,819.837036 682.392151,795.700317 668.752991,773.254639 
	C659.507324,758.039368 646.206848,746.635925 633.432129,734.694519 
	C617.792358,720.074890 606.215515,703.176941 604.327515,681.106018 
	C603.966553,676.886353 604.275696,672.609375 604.275696,667.504639 
	C575.722290,682.497925 555.400818,704.654175 540.965698,732.772339 
	C540.107361,731.612244 539.836914,731.006165 539.814514,730.391174 
	C539.753906,728.727661 539.699890,727.053406 539.816772,725.395569 
	C541.151489,706.453613 546.502014,688.695862 556.475220,672.549438 
	C577.032654,639.267151 607.933472,621.431580 645.474792,613.655090 
	C664.678955,609.677002 684.240723,610.265747 703.638000,608.758850 
	C716.299683,607.775085 728.326965,604.893799 738.631226,596.988464 
	C748.451111,589.454773 755.213928,579.970520 757.381897,567.396606 
	C755.041809,567.036255 753.491638,568.183472 751.860596,568.836853 
	C738.374390,574.238708 724.414795,577.028442 709.874634,576.191345 
	C693.914673,575.272522 678.993591,571.183289 666.349365,560.807007 
	C663.485535,558.456848 661.102966,555.764648 663.825562,551.898010 
	C665.863342,549.003967 670.043579,548.914368 673.582458,551.867493 
	C681.522522,558.493347 690.748108,561.969055 700.833130,563.371399 
	C707.293274,564.269775 713.812073,563.988953 720.302429,563.699890 
	C747.109497,562.506287 772.163513,544.052734 781.454041,519.072937 
	C783.576416,513.366333 783.370056,508.959625 778.732605,504.357147 
	C772.963928,498.631805 767.104309,492.825745 762.785583,485.834747 
	C758.724060,479.260315 760.482117,474.420654 767.632935,471.603302 
	C774.875427,468.749847 782.543152,468.289001 790.183472,467.709259 
	C792.897644,467.503326 795.706055,467.682007 798.771484,465.528961 
	C797.575867,464.613159 796.792175,464.017212 796.013184,463.415283 
	C787.688049,456.983154 778.650513,451.638397 769.747375,446.077240 
	C761.278931,440.787628 752.465576,436.035126 744.719177,429.609924 
	C733.387878,420.211212 728.847473,407.268982 725.695557,393.638336 
	C719.893982,368.549072 708.991943,346.085663 690.345764,328.139587 
	C649.243286,288.580292 598.969910,271.801392 542.858459,270.151581 
	C541.937256,270.124512 540.797729,269.911713 540.165466,271.327667 
	C542.243103,276.928741 547.315247,280.872620 550.573242,287.196014 
	C544.117249,286.363159 539.248474,284.431915 534.624817,281.856689 
	C520.882690,274.202759 511.823273,262.123596 503.984467,248.979187 
	C492.880066,230.358994 483.916534,210.598969 473.618591,191.550018 
	C464.986145,175.581848 456.692352,159.323914 443.588837,146.344238 
	C434.235962,137.079788 426.359344,136.931061 416.423645,145.528641 
	C409.934784,151.143646 404.851837,157.967285 400.348053,165.202774 
	C379.275452,199.056702 365.333099,235.400803 361.950928,275.433899 
	C360.017426,298.320099 362.106689,320.764954 370.550140,342.194946 
	C375.957764,355.919678 382.285736,369.440491 398.928467,373.183380 
	C399.152740,373.233856 399.283356,373.700745 399.446716,373.980286 
	C396.252655,381.014191 389.426422,384.313049 382.403473,382.133240 
	C378.005066,380.768097 374.376587,378.119568 371.134033,374.932190 
	C363.997314,367.916870 359.096527,359.456390 355.367065,350.261383 
	C348.814453,334.106049 345.795319,317.166321 344.389618,298.834747 
	C327.494171,341.769409 325.916840,383.391876 346.571472,424.924408 
	C329.026459,417.055267 318.555725,403.094574 311.207031,386.214142 
	C290.841644,404.719391 263.196625,482.692535 271.090088,499.204926 
	C279.650970,488.463562 288.617432,478.388306 301.145905,471.960815 
	C284.670013,505.390961 274.143066,540.221375 273.401733,577.757080 
	C280.894684,567.996704 288.387634,558.236389 295.880554,548.476013 
	C296.322052,548.731384 296.763550,548.986755 297.205048,549.242126 
	C296.489716,557.306213 294.284912,565.123779 292.530670,573.850098 
M363.162140,195.768814 
	C370.415649,179.273911 378.337494,163.117264 388.485748,148.181900 
	C396.567017,136.288620 405.151154,124.781151 418.246796,117.763527 
	C427.315948,112.903595 436.212097,113.566658 444.782227,118.999954 
	C451.028412,122.959885 456.261932,128.078186 460.971375,133.761398 
	C471.124420,146.013824 479.439270,159.499054 486.827850,173.506271 
	C498.874359,196.344070 510.459839,219.424835 522.294983,242.374664 
	C523.330688,244.383133 523.887817,247.140076 526.489380,247.662949 
	C533.425903,249.057098 540.187378,250.029343 546.074768,244.113739 
	C557.709961,232.422836 569.631226,221.015610 581.484741,209.543365 
	C601.135132,190.525116 621.164001,171.937653 643.845337,156.490280 
	C650.033142,152.275970 656.255432,148.004807 663.705078,146.202148 
	C668.878418,144.950287 672.935181,146.776154 675.383911,151.501572 
	C677.576538,155.732758 678.126831,160.344818 678.283630,165.051071 
	C678.989502,186.224182 674.036377,206.716415 670.774780,227.404388 
	C668.083191,244.476913 663.936157,261.320007 663.017090,278.671478 
	C662.744568,283.817078 664.167480,287.572052 668.862000,290.299622 
	C672.725159,292.544159 676.204834,295.493011 679.698364,298.322388 
	C710.040405,322.896271 731.918274,352.734039 738.497314,392.250397 
	C741.016724,407.383087 748.330627,419.700806 761.480164,428.210266 
	C766.234009,431.286591 770.820312,434.623047 775.463440,437.868744 
	C786.109497,445.310608 797.070862,452.320282 806.468201,461.429260 
	C812.547485,467.321930 814.503052,474.181122 812.497192,482.366211 
	C810.701599,489.693115 808.160767,496.720917 804.452148,503.281250 
	C802.869385,506.081146 801.957520,509.015778 801.167603,512.109375 
	C797.097107,528.050354 791.616333,543.480652 780.489380,555.971008 
	C776.140930,560.852234 773.173584,565.965698 771.128784,572.095154 
	C762.124023,599.086975 744.118713,616.335327 715.786377,621.940491 
	C704.976746,624.078979 693.933105,624.098267 683.007935,625.201050 
	C660.112183,627.512024 643.345886,642.020325 638.606873,664.138550 
	C635.046204,680.757263 639.710754,695.755188 647.838684,710.028870 
	C655.380005,723.272400 665.607788,734.578064 674.510010,746.839905 
	C692.491882,771.607910 702.488647,798.920654 701.295837,829.846008 
	C700.480652,850.980957 694.944275,870.875671 685.433472,889.722351 
	C684.428894,891.713013 682.939697,893.579163 682.806396,896.007812 
	C684.705261,896.448181 685.939636,895.470337 687.234863,894.836731 
	C743.552429,867.287598 791.509338,829.054993 830.045349,779.745667 
	C902.757080,686.706543 935.289001,581.027710 926.931885,463.008026 
	C923.680786,417.095337 913.207825,372.817902 895.635437,330.369446 
	C862.599548,250.566956 811.165955,185.383469 739.404419,136.761871 
	C678.752625,95.667618 611.847717,72.164314 538.725098,67.564865 
	C500.678314,65.171684 462.903412,68.510078 425.551056,76.876045 
	C351.463745,93.469696 287.549408,128.891434 232.435791,180.548218 
	C199.251617,211.651001 171.851303,247.390152 149.882278,287.262543 
	C109.620544,360.335083 90.350166,438.260773 95.045891,521.874756 
	C97.340332,562.730408 105.569954,602.356689 118.824593,640.955017 
	C137.124832,694.246460 165.419403,741.820190 202.082703,784.494324 
	C206.882309,790.080688 211.851913,795.521057 216.742767,801.029114 
	C216.856445,795.973938 215.983643,791.606934 215.021561,787.259705 
	C209.926788,764.238525 209.345825,741.041809 212.482742,717.736084 
	C215.877792,692.512512 222.941208,668.227478 232.449371,644.706421 
	C244.069885,615.959839 249.280716,586.199951 247.455643,555.322083 
	C246.146194,533.167969 245.700729,511.039703 247.943970,488.966125 
	C252.926331,439.939728 268.915833,394.613800 294.417328,352.514191 
	C304.848969,335.292908 316.182648,318.585571 323.757446,299.725189 
	C337.477753,265.563110 348.441711,230.362610 363.162140,195.768814 
M622.377563,200.863251 
	C621.739319,201.631821 621.106934,202.405334 620.462036,203.168259 
	C609.909607,215.651489 599.734253,228.414246 593.092896,243.522064 
	C589.251282,252.261032 591.033203,255.905975 600.102295,258.766541 
	C614.083313,263.176422 627.890930,268.032196 641.177490,274.278992 
	C642.186768,274.753510 643.219604,275.487427 644.447937,274.838745 
	C645.494873,273.807281 645.476379,272.446960 645.707764,271.141022 
	C648.579712,254.939377 651.632690,238.768082 654.324341,222.536789 
	C656.660461,208.449280 659.677795,194.427887 659.655212,180.041504 
	C659.651123,177.430206 660.278381,174.316483 657.498047,172.800446 
	C654.439636,171.132706 652.094971,173.641968 649.912659,175.257385 
	C639.974548,182.613968 631.163940,191.214600 622.377563,200.863251 
z"/>
<path fill="#3DBFA0" opacity="1.000000" stroke="none" 
	d="
M665.257446,380.680786 
	C671.657166,387.242188 674.457336,395.281250 676.884949,403.428497 
	C680.261047,414.758789 683.507874,426.113495 689.379761,436.494507 
	C689.680908,437.026886 689.674683,437.733093 689.967651,439.071014 
	C680.891602,438.065216 676.745911,431.040833 671.646240,425.706909 
	C669.323425,426.445282 669.475464,428.351196 668.989624,429.858185 
	C663.112488,448.086426 644.678040,451.923340 631.339478,437.687561 
	C624.269165,430.141571 621.229736,422.767059 619.323364,408.008057 
	C608.894653,413.596985 599.879456,423.063232 586.567383,420.030396 
	C586.612793,419.140961 586.502136,418.635498 586.663818,418.523682 
	C599.298462,409.784637 609.620178,398.322937 621.623047,388.844177 
	C628.338623,383.540863 635.541809,379.075562 643.841003,376.730652 
	C651.424377,374.588013 658.678589,374.970123 665.257446,380.680786 
M658.043457,410.627350 
	C661.939392,406.916473 661.574646,402.550659 659.474182,398.291687 
	C658.170227,395.647797 655.786194,393.905670 652.499817,395.090607 
	C648.728760,396.450317 646.991394,401.790253 648.601257,406.715424 
	C650.050720,411.149689 652.420410,412.317749 658.043457,410.627350 
z"/>
<path fill="#3DBFA0" opacity="1.000000" stroke="none" 
	d="
M482.490601,305.428589 
	C466.923157,315.695557 453.927521,328.525208 439.485077,340.743683 
	C443.526520,323.475403 435.711884,312.073853 421.821808,303.563019 
	C427.385986,300.594818 429.331635,300.788574 451.583649,306.080292 
	C451.711945,293.026794 446.161224,282.042358 439.404327,270.079285 
	C451.008789,273.038696 458.433411,279.932312 466.235535,287.665894 
	C468.082001,268.176178 462.966553,250.589996 456.950317,232.199875 
	C462.134369,234.439728 464.282471,238.153915 466.721100,241.314819 
	C478.946686,257.161499 485.415161,275.273712 487.239624,295.130737 
	C487.628052,299.358246 487.274231,303.176392 482.490601,305.428589 
z"/>
<path fill="#3DBFA0" opacity="1.000000" stroke="none" 
	d="
M673.072754,500.119843 
	C648.917114,497.414795 625.182434,496.445129 601.321838,497.853180 
	C571.924927,499.587921 543.184326,504.660004 515.009338,513.163696 
	C501.751984,517.164978 488.879456,522.150879 476.193085,527.660645 
	C474.746216,528.289001 473.417603,529.528076 470.181732,528.550354 
	C501.492218,509.827728 534.338745,499.042542 569.079346,493.803223 
	C609.732300,487.672272 650.087158,488.177094 689.722839,500.598907 
	C684.238586,502.603485 678.920959,500.204895 673.072754,500.119843 
z"/>
<path fill="#3DBFA0" opacity="1.000000" stroke="none" 
	d="
M564.840454,532.748108 
	C603.021667,517.970764 641.876465,509.676697 682.674622,513.136169 
	C679.622864,516.055725 675.783997,515.875183 672.186279,516.067871 
	C616.255127,519.063721 564.249451,535.005371 516.012085,563.343079 
	C508.983826,567.471924 501.996735,571.712036 495.549133,576.758057 
	C494.457581,577.612305 493.377960,578.781677 490.246277,578.344116 
	C512.710510,557.958740 537.769714,544.097778 564.840454,532.748108 
z"/>
<path fill="#3DBFA0" opacity="1.000000" stroke="none" 
	d="
M582.696777,573.731262 
	C567.940613,584.208984 554.942810,596.188416 542.490112,608.804260 
	C549.733459,579.878113 652.007751,519.329468 680.153137,526.920044 
	C679.755859,529.359619 677.611633,529.175842 676.031921,529.624512 
	C643.741272,538.794617 613.494690,552.374756 585.762756,571.391174 
	C584.802490,572.049622 583.908325,572.804626 582.696777,573.731262 
z"/>
</svg>